<?xml version="1.0" encoding="utf-8"?>
<!-- Generator: Adobe Illustrator 25.4.1, SVG Export Plug-In . SVG Version: 6.00 Build 0)  -->
<svg version="1.1" id="Lager_1" xmlns="http://www.w3.org/2000/svg" xmlns:xlink="http://www.w3.org/1999/xlink" x="0px" y="0px"
	 viewBox="0 0 28.4 28.4" style="enable-background:new 0 0 28.4 28.4;" xml:space="preserve">
<style type="text/css">
	.st0{fill:#862C4D;}
</style>
<path class="st0" d="M14.2,0C6.3,0,0,6.3,0,14.2s6.3,14.2,14.2,14.2S28.3,22,28.3,14.2S22,0,14.2,0z M20,15.4l-8.2,6.3
	c-0.3,0.2-0.6,0.3-0.9,0.3c-0.5,0-0.9-0.2-1.2-0.6c-0.5-0.7-0.4-1.7,0.3-2.2l6.6-5.1L9.9,9.1C9.3,8.6,9.1,7.6,9.7,6.9
	c0.5-0.7,1.5-0.8,2.2-0.3l8.2,6.3c0.4,0.3,0.6,0.8,0.6,1.2C20.7,14.7,20.4,15.1,20,15.4z"/>
</svg>
