<?xml version="1.0" encoding="utf-8"?>
<!-- Generator: Adobe Illustrator 25.4.1, SVG Export Plug-In . SVG Version: 6.00 Build 0)  -->
<svg version="1.1" id="Lager_1" xmlns="http://www.w3.org/2000/svg" xmlns:xlink="http://www.w3.org/1999/xlink" x="0px" y="0px"
	 viewBox="0 0 28.4 28.4" style="enable-background:new 0 0 28.4 28.4;" xml:space="preserve">
<style type="text/css">
	.st0{fill:#6C2F88;}
</style>
<path class="st0" d="M14.2,0C6.4,0,0,6.4,0,14.2s6.4,14.2,14.2,14.2c7.8,0,14.2-6.4,14.2-14.2S22,0,14.2,0z M20.1,15.3l-8.2,6.3
	c-0.3,0.4-0.7,0.5-1,0.5c-0.5,0-0.9-0.2-1.2-0.6c-0.5-0.7-0.4-1.7,0.3-2.2l6.6-5.1L9.9,9.1C9.3,8.5,9.1,7.6,9.7,6.9
	c0.6-0.7,1.5-0.8,2.2-0.3l8.2,6.3c0.4,0.3,0.6,0.8,0.6,1.2C20.7,14.5,20.5,15,20.1,15.3z"/>
</svg>
