<?xml version="1.0" encoding="utf-8"?>
<!-- Generator: Adobe Illustrator 25.4.1, SVG Export Plug-In . SVG Version: 6.00 Build 0)  -->
<svg version="1.1" id="Lager_1" xmlns="http://www.w3.org/2000/svg" xmlns:xlink="http://www.w3.org/1999/xlink" x="0px" y="0px"
	 viewBox="0 0 95.4 111.5" style="enable-background:new 0 0 95.4 111.5;" xml:space="preserve">
<style type="text/css">
	.st0{fill:#6C2F88;}
</style>
<path class="st0" d="M43.6,49.7v-8.6l-7.5-4.3v8.6L43.6,49.7z M43.6,33.1v-8.6l-14.8-8.4c-1.7-1.1-2.2-3.2-1.3-4.9
	c1.1-1.7,3.2-2.2,4.9-1.3l11.2,6.5V3.6c0-2.1,1.5-3.6,3.6-3.6c1.9,0,3.4,1.5,3.4,3.6v12.9l11.2-6.5c1.7-0.9,3.9-0.4,4.9,1.3
	c0.9,1.7,0.4,3.7-1.3,4.9l-14.8,8.4v8.6l9.2-5.4c2.4-1.3,5.2,0.4,5.2,3.2v10.5l7.5-4.3V20.2c0-2.1,1.5-3.6,3.6-3.6
	c1.9,0,3.4,1.5,3.4,3.6v12.9l11.2-6.5c1.7-0.9,3.9-0.4,4.9,1.3c0.9,1.7,0.4,3.7-1.3,4.9l-11.2,6.4l11.2,6.5c1.7,0.9,2.2,3,1.3,4.7
	c-0.9,1.7-3.2,2.2-4.9,1.3l-14.6-8.4l-7.5,4.3l9.2,5.2c2.4,1.3,2.2,4.7,0,6l-9.2,5.4l7.5,4.3l14.6-8.6c1.7-0.9,3.9-0.4,4.9,1.3
	c0.9,1.7,0.4,3.7-1.3,4.9l-11.2,6.4l11.2,6.5c1.7,0.9,2.2,3,1.3,4.7c-0.9,1.7-3.2,2.2-4.9,1.3l-11.2-6.4v12.9c0,1.9-1.5,3.4-3.4,3.4
	c-2.1,0-3.6-1.5-3.6-3.4v-17l-7.5-4.3v10.7c0,2.6-3,4.3-5.2,3l-9.2-5.2V87l14.8,8.6c1.7,0.9,2.2,3,1.3,4.7c-0.9,1.7-3.2,2.2-4.9,1.3
	l-11.2-6.4v12.9c0,1.9-1.5,3.4-3.4,3.4c-2.1,0-3.6-1.5-3.6-3.4V95.2l-11.2,6.4c-1.7,0.9-3.7,0.4-4.9-1.3c-0.9-1.7-0.4-3.7,1.3-4.7
	L43.6,87v-8.4l-9.2,5.2c-2.4,1.3-5.2-0.4-5.2-3V70.1l-7.5,4.3v17c0,1.9-1.5,3.4-3.6,3.4c-1.9,0-3.4-1.5-3.4-3.4V78.5L3.6,84.9
	c-1.7,0.9-3.9,0.4-4.9-1.3c-0.9-1.7-0.4-3.7,1.3-4.7l11.2-6.5L0,66c-1.7-1.1-2.2-3.2-1.3-4.9c0.9-1.7,3.2-2.2,4.9-1.3l14.6,8.6
	l7.5-4.3l-9.2-5.4c-2.4-1.3-2.2-4.7,0-6l9.2-5.2l-7.5-4.3L3.6,51.6c-1.7,0.9-3.9,0.4-4.9-1.3c-0.9-1.7-0.4-3.7,1.3-4.7l11.2-6.5
	L0,32.7c-1.7-1.1-2.2-3.2-1.3-4.9c0.9-1.7,3.2-2.2,4.9-1.3l11.2,6.5V20.2c0-2.1,1.5-3.6,3.4-3.6c2.1,0,3.6,1.5,3.6,3.6V37l7.5,4.3
	V30.9c0-2.8,3-4.5,5.2-3L43.6,33.1z M50.5,41.1v8.6l7.5-4.3v-8.6L50.5,41.1z M68.8,55.7l-7.3-4.3L54,55.7l7.5,4.3L68.8,55.7z
	 M58,74.6v-8.4l-7.5-4.3v8.4L58,74.6z M36.1,74.6l7.5-4.3v-8.4l-7.5,4.3V74.6z M25.2,55.7l7.3,4.3l7.5-4.3l-7.5-4.3L25.2,55.7z"/>
</svg>
